# xmcd
#
# Track frame offsets:
#	150
#	17548
#	32320
#	47134
#	62365
#	79129
#	96273
#	114733
#	130768
#	146723
#	161360
#	178782
#	193656
#	207824
#	220571
#	236785
#	254567
#	266831
#	280977
#	293856
#
# Disc length: 4124 seconds
#
# Revision: 1
# Processed by: cddbd v1.5.2PL0 Copyright (c) Steve Scherf et al.
# Submitted via: audiograbber 1.83.01
#
DISCID=25101a14
DTITLE=Various Artist - Trance Empire 2010.1
DYEAR=2010
DGENRE=Hands Up
TTITLE0=Michael Mind - Gotta Let You Go (Radio Edit)
TTITLE1=Wet Fingers - Put Your Hands Up (Radio Edit)
TTITLE2=PH Electro - San Francisco (Original Radio Edit)
TTITLE3=Mark'Oh - Scatman (Radio Short Mix)
TTITLE4=Khassino and Romina Johnson - Movin' Too Fast 2009 (Eric Chase Radio Edit
TTITLE4=)
TTITLE5=G&G - One Vision (Original Radio Mix)
TTITLE6=Stefano Prada and Rockstroh - To The Moon (Rockstroh Radio Mix)
TTITLE7=Sunloverz - Now That We Found Love (Main Mix Edit)
TTITLE8=Kurd and Rud - Ring Ring Ring (Radio Edit)
TTITLE9=Shaun Baker feat. Maloy - Give! (Sebastian Wolter Original Radio Versio
TTITLE9=n)
TTITLE10=Klaas - Our Own Way (Original Mix Edit)
TTITLE11=Crew 7 - Shawty Wanna Ride (Bootleg Radio Cut)
TTITLE12=Micha Moor - Tonight (Original Mix Edit)
TTITLE13=Miami - Sunshine Fiesta (Radio Mix)
TTITLE14=Finger and Kadel - Bitch (Zuckerbrot Mix Edit)
TTITLE15=Silverscreen - F Is For... (Die Hörer For Radio Mix)
TTITLE16=Laidback Luke - Need Your Loving
TTITLE17=Ida Corr - I Want You (Funkerman Remix)
TTITLE18=DBN - Jack Is Back (Radio Mix)
TTITLE19=Niels Van Gogh vs. Emilio Verdez - My House Is Calling (Club Mix)
EXTD=
EXTT0=
EXTT1=
EXTT2=
EXTT3=
EXTT4=
EXTT5=
EXTT6=
EXTT7=
EXTT8=
EXTT9=
EXTT10=
EXTT11=
EXTT12=
EXTT13=
EXTT14=
EXTT15=
EXTT16=
EXTT17=
EXTT18=
EXTT19=
PLAYORDER=
